<svg width="28" height="28" viewBox="0 0 28 28" fill="none" xmlns="http://www.w3.org/2000/svg">
<path fill-rule="evenodd" clip-rule="evenodd" d="M19.4413 27.3332H8.54797C3.8413 27.3332 0.667969 24.3052 0.667969 19.7865V8.2265C0.667969 3.7065 3.8413 0.666504 8.54797 0.666504H19.4413C24.1613 0.666504 27.3346 3.7065 27.3346 8.2265V19.7865C27.3346 24.3052 24.1613 27.3332 19.4413 27.3332ZM17.028 12.9998H8.5613C8.0013 12.9998 7.5613 13.4532 7.5613 13.9998C7.5613 14.5598 8.0013 14.9998 8.5613 14.9998H17.028L13.7213 18.2932C13.5346 18.4798 13.428 18.7465 13.428 18.9998C13.428 19.2518 13.5346 19.5065 13.7213 19.7065C14.108 20.0932 14.748 20.0932 15.1346 19.7065L20.1613 14.7065C20.5346 14.3332 20.5346 13.6665 20.1613 13.2932L15.1346 8.29317C14.748 7.9065 14.108 7.9065 13.7213 8.29317C13.3346 8.69317 13.3346 9.31984 13.7213 9.71984L17.028 12.9998Z" fill="#A5ADBC"/>
</svg>
